<?xml version="1.0" encoding="utf-8"?>
<svg version="1.0" width="187.000000pt" height="32.000000pt" viewBox="0 0 187.000000 32.000000" preserveAspectRatio="xMidYMid meet" xmlns="http://www.w3.org/2000/svg">
  <g transform="translate(0.000000,32.000000) scale(0.100000,-0.100000)" fill="#000000" stroke="none">
    <path d="M0 160 l0 -160 935 0 935 0 0 160 0 160 -935 0 -935 0 0 -160z m1284 93 c-9 -20 -14 -48 -11 -62 3 -13 0 -35 -6 -48 -8 -18 -7 -27 3 -36 7 -6 10 -7 7 -1 -3 6 1 11 9 11 10 0 11 -4 4 -11 -12 -12 -14 -46 -2 -46 5 0 18 9 30 20 12 12 22 16 22 11 0 -6 -11 -18 -25 -27 -19 -13 -28 -14 -39 -5 -11 9 -15 9 -20 -1 -10 -20 4 153 15 195 5 20 14 37 19 37 5 0 2 -17 -6 -37z m-776 20 c-16 -2 -40 -2 -55 0 -16 2 -3 4 27 4 30 0 43 -2 28 -4z m527 -9 c-59 -16 -83 -18 -69 -5 9 10 50 18 94 19 14 0 3 -6 -25 -14z m-642 -1 l-33 -4 -2 -77 -2 -77 -5 75 c-7 82 -2 90 44 88 l30 -1 -32 -4z m688 -108 c-9 -39 -9 -38 -10 26 -1 36 2 69 7 73 11 12 14 -55 3 -99z m-194 43 c-3 -8 -6 -5 -6 6 -1 11 2 17 5 13 3 -3 4 -12 1 -19z m-446 -11 c-10 -9 -11 -8 -5 6 3 10 9 15 12 12 3 -3 0 -11 -7 -18z m437 -64 c-13 -28 -50 -64 -65 -63 -4 0 -7 10 -7 22 0 14 10 27 32 37 22 12 32 23 32 41 1 21 2 22 10 8 7 -11 6 -26 -2 -45z m-391 16 c-17 -17 -31 -33 -29 -35 6 -11 1 -34 -9 -34 -6 0 -9 14 -7 33 2 17 8 31 14 30 7 -1 20 7 29 17 10 11 22 20 26 20 5 0 -6 -14 -24 -31z m1010 0 c-17 -17 -31 -33 -29 -35 6 -10 1 -34 -7 -34 -17 0 3 54 28 76 39 35 46 29 8 -7z m-185 14 c-6 -2 -10 -8 -8 -12 3 -4 -1 -8 -9 -8 -11 0 -12 4 -4 14 6 7 17 13 23 12 7 0 6 -2 -2 -6z m-642 -16 c0 -7 -12 -24 -26 -36 -23 -20 -25 -20 -22 -4 2 10 10 18 17 18 8 0 16 6 19 14 3 8 0 11 -7 7 -6 -4 -11 -2 -11 3 0 6 7 11 15 11 8 0 15 -6 15 -13z m730 -1 c0 -15 -30 -44 -31 -30 0 5 -5 0 -10 -11 l-9 -20 3 20 c1 11 9 20 16 20 8 0 16 6 19 14 3 9 0 11 -8 6 -9 -5 -11 -4 -6 3 10 16 26 15 26 -2z m-663 -17 c-4 -17 -3 -19 6 -10 17 17 37 13 37 -6 0 -15 -2 -16 -10 -3 -8 13 -11 12 -24 -5 -8 -11 -18 -17 -21 -13 -8 8 2 58 11 58 4 0 4 -10 1 -21z m463 11 c0 -5 -6 -7 -13 -4 -7 2 -24 -8 -37 -22 -21 -23 -22 -26 -6 -20 16 5 17 4 6 -9 -9 -11 -16 -13 -24 -5 -7 7 -1 19 19 40 28 29 55 39 55 20z m-637 -32 c-6 -29 -4 -31 17 -25 16 4 20 3 12 -5 -18 -18 -42 -1 -42 32 0 16 4 30 10 30 5 0 7 -13 3 -32z m-206 -45 c-3 -10 -5 -2 -5 17 0 19 2 27 5 18 2 -10 2 -26 0 -35z m858 17 c-3 -5 -12 -10 -18 -10 -7 0 -6 4 3 10 19 12 23 12 15 0z m-138 -32 c-3 -8 -6 -5 -6 6 -1 11 2 17 5 13 3 -3 4 -12 1 -19z" style="fill: rgb(0, 247, 255);"/>
    <path d="M838 103 c-29 -34 -30 -48 -2 -21 15 15 26 30 23 33 -3 3 -13 -3 -21 -12z" style="fill: rgb(0, 247, 255);"/>
  </g>
</svg>