<?xml version="1.0" encoding="utf-8"?>
<svg version="1.0" width="187.000000pt" height="32.000000pt" viewBox="0 0 187.000000 32.000000" preserveAspectRatio="xMidYMid meet" xmlns="http://www.w3.org/2000/svg">
  <g transform="translate(0.000000,32.000000) scale(0.100000,-0.100000)" fill="#000000" stroke="none">
    <path d="M 0 160 L 0 0 L 935 0 L 1870 0 L 1870 160 L 1870 320 L 935 320 L 0 320 L 0 160 Z M 1284 253 C 1275 233 1270 205 1273 191 C 1276 178 1273 156 1267 143 C 1259 125 1260 116 1270 107 C 1277 101 1280 100 1277 106 C 1274 112 1278 117 1286 117 C 1296 117 1297 113 1290 106 C 1278 94 1276 60 1288 60 C 1293 60 1306 69 1318 80 C 1330 92 1340 96 1340 91 C 1340 85 1329 73 1315 64 C 1296 51 1287 50 1276 59 C 1265 68 1261 68 1256 58 C 1246 38 1260 211 1271 253 C 1276 273 1285 290 1290 290 C 1295 290 1292 273 1284 253 Z M 508 273 C 492 271 468 271 453 273 C 437 275 450 277 480 277 C 510 277 523 275 508 273 Z M 1035 264 C 976 248 952 246 966 259 C 975 269 1016 277 1060 278 C 1074 278 1063 272 1035 264 Z M 393 263 L 360 259 L 358 182 L 356 105 L 351 180 C 344 262 349 270 395 268 L 425 267 L 393 263 Z M 1081 155 C 1072 116 1072 117 1071 181 C 1070 217 1073 250 1078 254 C 1089 266 1092 199 1081 155 Z M 887 198 C 884 190 881 193 881 204 C 880 215 883 221 886 217 C 889 214 890 205 887 198 Z M 441 187 C 431 178 430 179 436 193 C 439 203 445 208 448 205 C 451 202 448 194 441 187 Z M 878 123 C 865 95 828 59 813 60 C 809 60 806 70 806 82 C 806 96 816 110.037 838 120.037 C 860 132.037 870 142 870 160 C 871 181 872 182 880 168 C 887 157 886 142 878 123 Z M 487 139 C 470 122 456 106 458 104 C 464 93 459 70 449 70 C 443 70 440 84 442 103 C 444 120 450 134 456 133 C 463 132 476 140 485 150 C 495 161 507 170 511 170 C 516 170 505 156 487 139 Z M 1497 139 C 1480 122 1466 106 1468 104 C 1474 94 1469 70 1461 70 C 1444 70 1464 124 1489 146 C 1528 181 1535 175 1497 139 Z M 1312 153 C 1306 151 1302 145 1304 141 C 1307 137 1303 133 1295 133 C 1284 133 1283 137 1291 147 C 1297 154 1308 160 1314 159 C 1321 159 1320 157 1312 153 Z M 670 137 C 670 130 658 113 644 101 C 621 81 619 81 622 97 C 624 107 632 115 639 115 C 647 115 655 121 658 129 C 661 137 658 140 651 136 C 645 132 640 134 640 139 C 640 145 647 150 655 150 C 663 150 670 144 670 137 Z M 1400 136 C 1400 121 1370 92 1369 106 C 1369 111 1364 106 1359 95 L 1350 75 L 1353 95 C 1354 106 1362 115 1369 115 C 1377 115 1385 121 1388 129 C 1391 138 1388 140 1380 135 C 1371 130 1369 131 1374 138 C 1384 154 1400 153 1400 136 Z M 737 119 C 733 102 734 100 743 109 C 760 126 780 122 780 103 C 780 88 778 87 770 100 C 762 113 759 112 746 95 C 738 84 728 78 725 82 C 717 90 727 140 736 140 C 740 140 740 130 737 119 Z M 1200 130 C 1200 125 1194 123 1187 126 C 1180 128 1163 118 1150 104 C 1129 81 1128 78 1144 84 C 1160 89 1161 88 1150 75 C 1141 64 1134 62 1126 70 C 1119 77 1125 89 1145 110 C 1173 139 1200 149 1200 130 Z M 563 98 C 557 69 559 67 580 73 C 596 77 600 76 592 68 C 574 50 550 67 550 100 C 550 116 554 130 560 130 C 565 130 567 117 563 98 Z M 357 53 C 354 43 352 51 352 70 C 352 89 354 97 357 88 C 359 78 359 62 357 53 Z M 1215 70 C 1212 65 1203 60 1197 60 C 1190 60 1191 64 1200 70 C 1219 82 1223 82 1215 70 Z M 1077 38 C 1074 30 1071 33 1071 44 C 1070 55 1073 61 1076 57 C 1079 54 1080 45 1077 38 Z" style="fill-opacity: 0.5; fill: rgba(0, 0, 0, 0);"/>
    <path d="M838 103 c-29 -34 -30 -48 -2 -21 15 15 26 30 23 33 -3 3 -13 -3 -21 -12z"/>
  </g>
</svg>