<?xml version="1.0" standalone="no"?>
<!DOCTYPE svg PUBLIC "-//W3C//DTD SVG 20010904//EN"
 "http://www.w3.org/TR/2001/REC-SVG-20010904/DTD/svg10.dtd">
<svg version="1.0" xmlns="http://www.w3.org/2000/svg"
 width="187.000000pt" height="32.000000pt" viewBox="0 0 187.000000 32.000000"
 preserveAspectRatio="xMidYMid meet">

<g transform="translate(0.000000,32.000000) scale(0.100000,-0.100000)"
fill="#000000" stroke="none">
<path d="M0 160 l0 -160 156 0 156 0 -7 82 c-4 46 -12 86 -19 90 -8 6 -7 8 2
8 6 0 12 7 12 16 0 8 -4 12 -10 9 -5 -3 -10 -2 -10 3 0 19 58 35 135 38 44 1
64 0 45 -2 -19 -3 -59 -9 -87 -15 -53 -10 -53 -11 -53 -48 0 -35 2 -38 25 -34
13 3 30 11 36 19 15 18 29 18 29 0 0 -7 -20 -19 -45 -26 -49 -14 -49 -15 -39
-94 l7 -46 768 0 769 0 0 160 0 160 -935 0 -935 0 0 -160z m1336 128 c-4 -13
-9 -44 -10 -69 -2 -25 -7 -52 -11 -60 -5 -8 3 -4 17 9 33 30 43 15 17 -28 -25
-41 -11 -62 20 -29 16 17 21 19 21 7 0 -25 -36 -50 -67 -46 l-28 3 2 85 c3
113 10 150 30 150 11 0 14 -6 9 -22z m-231 -8 c-114 -32 -125 -33 -125 -21 0
6 3 11 8 11 4 1 30 7 57 15 28 7 68 14 90 14 36 0 33 -2 -30 -19z m15 -39 c0
-15 -3 -50 -7 -77 -8 -62 -21 -34 -22 49 -1 44 2 57 14 57 10 0 15 -10 15 -29z
m-209 -14 c-5 -13 -12 -53 -16 -90 l-7 -68 28 6 c28 6 28 6 10 -9 -24 -19 -38
-20 -54 -4 -9 9 -15 8 -25 -7 -15 -20 -37 -13 -37 11 0 8 -4 12 -10 9 -5 -3
-18 -1 -29 4 -15 8 -20 7 -25 -6 -10 -26 -37 6 -30 35 6 22 24 31 24 11 0 -6
9 -8 20 -4 14 5 20 2 20 -9 0 -21 5 -20 51 5 31 18 39 29 44 63 10 63 15 76
30 76 11 0 12 -6 6 -23z m676 -37 c-14 -11 -31 -36 -37 -55 -15 -45 -30 -45
-30 0 0 21 5 35 13 35 7 0 18 9 25 20 7 11 22 20 33 20 21 0 20 -1 -4 -20z
m-127 -25 c0 -8 -10 -23 -22 -35 -23 -21 -10 -27 22 -10 16 8 18 7 14 -4 -7
-18 -39 -30 -54 -21 -13 8 -13 41 0 66 12 22 40 26 40 4z m-910 -20 c0 -8 -4
-15 -10 -15 -5 0 -10 7 -10 15 0 8 5 15 10 15 6 0 10 -7 10 -15z m685 5 c3 -5
0 -10 -8 -10 -8 0 -21 -8 -28 -17 -12 -15 -12 -16 3 -10 19 7 72 -16 61 -26
-11 -12 -41 -8 -46 6 -3 9 -9 8 -23 -5 -11 -10 -25 -14 -32 -9 -10 6 -7 15 10
37 34 44 51 53 63 34z m-751 -20 c-19 -7 -30 -26 -48 -83 -9 -28 -26 -10 -26
29 0 22 5 34 14 34 7 0 19 7 26 15 7 8 22 15 34 14 l21 0 -21 -9z m176 -12 c0
-6 -7 -20 -17 -30 -23 -26 -9 -34 24 -13 l28 18 -19 -21 c-25 -29 -66 -30 -66
-1 0 11 5 29 10 40 12 21 40 26 40 7z m-110 -38 c0 -22 4 -28 15 -24 8 4 15 1
15 -5 0 -17 -50 -13 -56 4 -8 21 4 67 16 60 6 -3 10 -19 10 -35z m570 20 c0
-5 -2 -10 -4 -10 -3 0 -8 5 -11 10 -3 6 -1 10 4 10 6 0 11 -4 11 -10z m0 -45
c0 -8 -4 -15 -10 -15 -5 0 -10 7 -10 15 0 8 5 15 10 15 6 0 10 -7 10 -15z"/>
<path d="M846 93 c-6 -14 -5 -15 5 -6 7 7 10 15 7 18 -3 3 -9 -2 -12 -12z"/>
</g>
</svg>
